<svg width="95" height="95" viewBox="0 0 95 95" fill="none" xmlns="http://www.w3.org/2000/svg">
<path d="M58.0338 55.8236H41.6717V36.5741H58.0338V55.8236Z" fill="#0D131A"/>
<path d="M0.998118 56.1445C1.59224 53.9106 2.57848 52.6391 3.95684 52.3302C5.57285 51.9737 7.10569 52.8055 8.55534 54.8255C9.83864 56.6316 10.7179 58.818 11.1932 61.3846C11.6685 63.9275 11.621 66.6129 11.0507 69.4409C10.5991 71.7936 9.96935 73.5641 9.16135 74.7523L8.59099 75.5366C7.78298 75.2039 6.73733 74.3246 5.45403 72.8987C3.60037 70.8074 2.2933 68.3834 1.53283 65.6266C0.510939 61.8956 0.332703 58.7348 0.998118 56.1445Z" fill="#0D131A"/>
<path d="M2.53095 64.0938C1.91307 61.5034 1.73483 59.1388 1.99625 57C2.28142 54.6473 3.06566 53.3402 4.34897 53.0788C5.39462 52.8649 6.46404 53.5541 7.55722 55.1463C8.7217 56.8574 9.56535 59.2101 10.0882 62.2045C10.3734 63.7492 10.409 65.6148 10.1951 67.8011C9.98124 70.439 9.44653 72.6967 8.59099 74.5741C7.30769 73.6948 6.10756 72.2689 4.99062 70.2964C3.89743 68.3715 3.07755 66.3039 2.53095 64.0938Z" fill="#F0E78E"/>
<path d="M2.5666 54.7542C2.21013 60.1251 3.22013 64.6523 5.59662 68.3358C6.49968 69.7142 7.39086 70.6173 8.27016 71.045C9.1257 71.4728 9.64853 71.2827 9.83864 70.4747C9.5297 72.0432 9.11382 73.4096 8.59099 74.5741C7.30769 73.6948 6.10756 72.2689 4.99061 70.2964C3.89743 68.3715 3.07754 66.3039 2.53095 64.0938C2.10318 62.359 1.8893 60.6598 1.8893 58.9963C1.86554 57.2139 2.0913 55.7999 2.5666 54.7542Z" fill="#C9C279"/>
<path d="M11.4071 76.6773L10.1951 77.6398L8.62664 78.2814C7.48593 78.1151 6.91557 77.4021 6.91557 76.1426C6.89181 74.9068 7.35522 74.0869 8.30582 73.6829C9.25641 73.2552 10.1119 73.3978 10.8724 74.1107C11.6567 74.8236 11.8349 75.6792 11.4071 76.6773Z" fill="#0D131A"/>
<path d="M10.7655 75.1088C10.9793 75.5366 10.8843 76 10.4803 76.4991L9.76734 77.1051L9.12569 77.3546C8.62663 77.4497 8.22262 77.3189 7.91368 76.9625C7.67603 76.7011 7.60474 76.2971 7.6998 75.7505C7.77109 75.1801 8.02062 74.7523 8.44839 74.4672C8.75733 74.277 9.13757 74.2176 9.5891 74.2889C10.1357 74.3602 10.5278 74.6335 10.7655 75.1088Z" fill="#F0E78E"/>
<path d="M10.7655 75.1088C10.9794 75.5366 10.8843 76 10.4803 76.4991L9.76735 77.1051L9.12569 77.3546C8.62663 77.4497 8.22263 77.319 7.91369 76.9625C7.65227 76.6773 7.58098 76.2733 7.6998 75.7505L9.30393 75.8574C9.92182 75.5485 10.1713 75.0732 10.0525 74.4315C10.3615 74.5504 10.5991 74.7761 10.7655 75.1088Z" fill="#C9C279"/>
<path d="M55.0038 77.6754C55.9306 76.7961 57.1545 76.3565 58.6754 76.3565C60.4103 76.3565 61.848 76.7486 62.9887 77.5328C64.4622 78.5547 65.1989 80.147 65.1989 82.3096C65.1989 83.7355 64.4978 85.0663 63.0957 86.3021C61.6698 87.5854 60.1132 88.1795 58.4259 88.0844C57.0238 88.0131 55.8712 87.526 54.9681 86.6229C53.9462 85.5535 53.4353 84.0563 53.4353 82.1313C53.4353 80.1826 53.9581 78.6973 55.0038 77.6754Z" fill="#0D131A"/>
<path d="M55.3602 78.3171C56.2395 77.1526 57.3683 76.5704 58.7467 76.5704C60.1726 76.5704 61.3965 77.0813 62.4184 78.1032C63.464 79.1726 63.9868 80.5272 63.9868 82.167C63.9868 83.5453 63.3571 84.7336 62.0975 85.7317C60.9093 86.6585 59.5904 87.122 58.1407 87.122C57.1188 87.122 56.1801 86.5872 55.3246 85.5178C54.4928 84.4722 54.0769 83.3552 54.0769 82.167C54.0769 80.6936 54.5047 79.4103 55.3602 78.3171Z" fill="#F0E78E"/>
<path d="M58.1407 87.122C57.1188 87.122 56.1801 86.5872 55.3246 85.5178C54.4928 84.4722 54.0769 83.3552 54.0769 82.167C54.0769 80.6936 54.5047 79.4103 55.3602 78.3171C56.2395 77.1526 57.3683 76.5704 58.7467 76.5704L60.3508 76.8199L59.4953 76.7486C58.212 76.7486 57.1188 77.2001 56.2157 78.1032C55.3127 79.0063 54.8611 80.0994 54.8611 81.3827C54.8611 82.666 55.3127 83.7711 56.2157 84.6979C57.1188 85.601 58.212 86.0525 59.4953 86.0525C60.5172 86.0525 61.444 85.7436 62.2758 85.1257C63.0838 84.5316 63.6423 83.7592 63.9512 82.8086C63.7373 84.0206 63.0363 85.0544 61.848 85.9099C60.7073 86.718 59.4715 87.122 58.1407 87.122Z" fill="#C9C279"/>
<path d="M52.6867 69.94L52.2233 86.516C50.227 89.6292 47.4822 91.7799 43.9887 92.9681C40.8043 94.0613 35.9919 94.6554 29.5516 94.7505C24.2758 94.8218 19.7605 93.7405 16.0056 91.5066C11.9894 89.1301 9.45841 85.7674 8.41276 81.4184C8.03252 79.7311 8.25829 78.3527 9.09006 77.2833C10.0169 76.1188 11.3477 75.9049 13.0826 76.6417L15.6848 77.6041L20.3902 77.9963C24.359 77.8774 27.389 76.404 29.4803 73.576C31.5478 70.748 32.3558 66.9694 31.9043 62.2402L42.4916 57.1069L52.6867 69.94Z" fill="#0D131A"/>
<path d="M17.9306 78.7448L16.7899 79.2083C15.9343 79.7311 15.2214 80.5272 14.651 81.5966C14.0807 82.6898 13.8668 83.8781 14.0094 85.1614L14.4371 86.8011L13.0113 86.3734C12.3696 86.1595 11.8587 85.8743 11.4784 85.5178C10.8843 84.9475 10.3852 84.1989 9.98124 83.272C9.601 82.3452 9.37523 81.359 9.30394 80.3133C9.23264 79.1488 9.51782 78.2458 10.1595 77.6041L12.833 77.5328L14.9006 78.3527C16.1363 78.733 17.1463 78.8637 17.9306 78.7448Z" fill="#6CBA5A"/>
<path d="M9.55347 81.8462C9.98123 82.773 10.7417 83.4028 11.8349 83.7355L14.0094 83.5929C13.8668 84.7811 14.0094 85.8505 14.4371 86.8011L13.0113 86.3734C12.3696 86.1595 11.8587 85.8743 11.4784 85.5178C10.5278 84.591 9.88617 83.3671 9.55347 81.8462Z" fill="#5DA24D"/>
<path d="M24.454 78.531L23.6342 79.6717C23.0876 80.646 22.8143 81.5966 22.8143 82.5235C22.8143 83.5216 23.0163 84.4841 23.4203 85.4109C23.753 86.1238 24.0857 86.6229 24.4184 86.9081C24.7749 87.2408 24.7392 87.4428 24.3115 87.5141L20.3903 87.8349C18.6554 87.8349 17.3008 87.5022 16.3265 86.8368C15.3996 86.1951 14.9362 85.3277 14.9362 84.2345C14.9362 82.975 15.4115 81.7867 16.3621 80.6698C17.1701 79.7192 17.9662 79.1488 18.7505 78.9587L21.5666 78.7805L23.242 78.424C23.9787 78.2339 24.3827 78.2695 24.454 78.531Z" fill="#6CBA5A"/>
<path d="M14.9362 83.9137C15.2927 84.8405 16.5998 85.4584 18.8574 85.7674C21.1388 86.0525 22.6004 85.7674 23.242 84.9118C23.5747 85.8387 23.9669 86.5041 24.4184 86.9081C24.7749 87.2408 24.7392 87.4428 24.3115 87.5141L20.3903 87.8349C18.6554 87.8349 17.3008 87.5022 16.3265 86.8368C15.3996 86.1951 14.9362 85.3277 14.9362 84.2345V83.9137Z" fill="#5DA24D"/>
<path d="M33.3659 84.7336C31.4647 85.8743 29.7655 86.5635 28.2683 86.8011C26.7236 86.9912 25.5472 86.5991 24.7392 85.6248C24.0738 84.8168 23.7411 83.7355 23.7411 82.3809C23.7411 81.5491 23.8599 80.848 24.0976 80.2777C24.3352 79.636 24.763 79.0181 25.3809 78.424L28.3396 76.1069C29.7892 74.9187 30.7636 73.7899 31.2627 72.7205L31.5478 72.4353L31.7974 72.7205C31.9637 73.5998 32.4153 74.5266 33.152 75.5009C34.5066 77.3071 36.5266 78.6498 39.212 79.5291L37.8574 81.2045C36.5979 82.5353 35.1007 83.7117 33.3659 84.7336Z" fill="#6CBA5A"/>
<path d="M30.3002 83.5929C33.0094 81.858 34.1263 79.3627 33.651 76.1069C34.9819 77.6279 36.8355 78.7686 39.212 79.5291L37.8574 81.2045C36.5979 82.5353 35.1007 83.7117 33.3659 84.7336C31.4647 85.8743 29.7655 86.5635 28.2683 86.8011C26.2483 87.0625 24.8937 86.3734 24.2045 84.7336C25.9156 85.4465 27.9475 85.0663 30.3002 83.5929Z" fill="#5DA24D"/>
<path d="M42.5985 59.0319L43.7392 71.7223L42.4202 76.2495L39.711 78.2101C38.1188 78.2101 36.5028 77.4259 34.863 75.8574C33.152 74.2414 32.2964 72.566 32.2964 70.8311C32.2964 70.4271 32.3796 69.8211 32.5459 69.0131L32.9381 66.9456C33.2708 64.878 33.4134 63.5947 33.3658 63.0957L39.105 59.0319H42.5985Z" fill="#6CBA5A"/>
<path d="M42.5985 59.0319L43.7392 71.7223L42.4203 76.2495L39.7111 78.2101C38.8318 78.2101 37.8693 77.9131 36.8236 77.3189C35.8017 76.7486 34.8987 76 34.1144 75.0732C35.8017 75.1207 37.1326 74.5503 38.1069 73.3621C38.9625 72.3164 39.4378 70.9737 39.5328 69.334C39.6517 67.7892 39.414 66.4109 38.8199 65.1989C38.202 63.9156 37.3583 63.2145 36.2889 63.0957L39.1051 59.0319H42.5985Z" fill="#5DA24D"/>
<path d="M48.8368 83.2007C50.2626 85.1257 50.7855 86.3971 50.4052 87.015C49.4071 88.6073 47.9218 89.9262 45.9493 90.9719C44.0244 91.9937 42.1826 92.5047 40.424 92.5047C38.903 92.5047 37.3702 91.9106 35.8255 90.7223C34.3283 89.5578 33.3658 88.2864 32.9381 86.9081C32.7717 86.3139 33.0688 85.8268 33.8292 85.4465L37.6792 82.5235L46.591 80.4916L48.8368 83.2007Z" fill="#C9C279"/>
<path d="M38.4991 92.7899C34.1263 93.6929 30.7874 94.0138 28.4822 93.7523C27.2464 93.6098 26.2602 92.9443 25.5235 91.7561C24.7868 90.5679 24.7036 89.5578 25.2739 88.7261C25.4165 88.536 25.5948 88.3934 25.8086 88.2983L26.8424 87.9418L28.6604 87.5497L32.0469 86.409L33.0807 88.9043C34.2689 90.7342 36.0751 92.0294 38.4991 92.7899Z" fill="#C9C279"/>
<path d="M26.272 93.5028C22.3746 93.2414 19.3208 92.4096 17.1107 91.0075C16.4215 90.5084 15.9462 89.8906 15.6848 89.1539C15.4471 88.4409 15.4947 88.0726 15.8274 88.0488L19.4277 88.5835C21.1388 88.7023 22.7786 88.6667 24.3471 88.4766C23.9193 89.4984 23.955 90.5084 24.454 91.5066C24.8343 92.3146 25.4403 92.98 26.272 93.5028Z" fill="#C9C279"/>
<path d="M15.3996 90.0807C14.2351 89.3677 13.2727 88.5122 12.5122 87.5141C12.3934 87.3715 12.3696 87.2408 12.4409 87.122L12.9043 87.0507L14.6867 87.6923C14.4966 88.025 14.5203 88.4765 14.758 89.0469L15.3996 90.0807Z" fill="#C9C279"/>
<path d="M31.6548 26.3433C32.9143 27.4841 35.1126 29.7892 38.2495 33.2589C40.7686 35.778 42.9074 38.7129 44.666 42.0638C46.282 45.1295 47.09 47.5416 47.09 49.3002C47.09 50.6548 46.7098 51.9856 45.9493 53.2927L44.4878 55.3602L43.4184 57.3921L41.8143 60.03C40.8161 61.4797 39.7942 62.4659 38.7486 62.9887C37.6792 63.5116 36.1226 63.773 34.0788 63.773C30.6091 63.773 27.1395 61.2777 23.6698 56.2871C20.1051 51.2014 18.3227 45.9731 18.3227 40.6023C18.3227 37.1326 19.1663 33.758 20.8537 30.4784C22.4459 27.389 24.1926 25.4403 26.0938 24.6323C27.7573 23.9431 29.611 24.5134 31.6548 26.3433Z" fill="#0D131A"/>
<path d="M26.379 26.1651L29.1595 26.0582L35.0769 31.4409L38.8199 36.2889C41.4103 39.7111 42.9787 41.8856 43.5253 42.8124C45.3077 45.8781 46.1989 47.9812 46.1989 49.122C46.1989 50.1201 45.8305 51.2251 45.0938 52.4372L43.7036 54.3265L42.4559 56.5009L40.9231 59.1745C39.3308 61.5747 37.2752 62.7749 34.7561 62.7749C31.3577 62.7749 28.0425 60.4934 24.8105 55.9306C21.4834 51.2251 19.8199 46.1989 19.8199 40.8518C19.8199 37.8099 20.5447 34.6135 21.9944 31.2627C23.4678 27.8643 24.9293 26.1651 26.379 26.1651Z" fill="#6CBA5A"/>
<path d="M46.1989 49.122C46.1989 50.1201 45.8305 51.2251 45.0938 52.4372L43.7036 54.3265L42.4559 56.5009L40.9231 59.1745C39.3308 61.5747 37.2752 62.7749 34.7561 62.7749C33.5441 62.7749 32.1895 62.3709 30.6923 61.5629C33.449 62.3471 35.3502 61.848 36.3959 60.0657C37.5128 58.117 37.192 55.2295 35.4334 51.4034C35.2195 50.9281 34.0669 49.3002 31.9756 46.5197C29.9318 43.8343 28.5653 41.6479 27.8762 39.9606L39.4259 37.1088L43.5253 42.8124C45.3077 45.8781 46.1989 47.9812 46.1989 49.122Z" fill="#5DA24D"/>
<path d="M51.8311 62.3114C55.7761 62.3114 58.7348 63.2502 60.7073 65.1276C62.7749 67.0763 63.8086 70.1063 63.8086 74.2176C63.8086 77.1645 62.252 80.0757 59.1388 82.9512C55.9306 85.9456 52.5203 87.4428 48.9081 87.4428C46.1038 87.4428 43.9293 86.4328 42.3846 84.4128C40.8399 82.369 40.0675 79.5053 40.0675 75.8218C40.0675 72.8512 41.1726 69.9281 43.3827 67.0525C45.8305 63.8918 48.6467 62.3114 51.8311 62.3114Z" fill="#0D131A"/>
<path d="M51.9381 63.167C55.1701 63.167 57.7367 64.0819 59.6379 65.9118C61.7054 67.8843 62.7392 70.7004 62.7392 74.3602C62.7392 77.0457 61.1707 79.7786 58.0338 82.5591C54.9206 85.3396 51.8787 86.7298 48.9081 86.7298C46.5791 86.7298 44.6779 85.7911 43.2045 83.9137C41.6835 81.9887 40.9231 79.4103 40.9231 76.1782C40.9231 73.3978 42.0281 70.5935 44.2383 67.7655C46.591 64.6998 49.1576 63.167 51.9381 63.167Z" fill="#F0E78E"/>
<path d="M42.7411 70.0469C43.9768 67.7892 45.4978 66.0306 47.3039 64.7711L52.5797 68.5497L52.2233 73.0413C50.9875 73.1363 49.7636 73.5522 48.5516 74.2889C47.4109 74.9781 46.5553 75.7742 45.985 76.6773C45.5572 77.414 44.6541 78.0675 43.2758 78.6379L41.3152 79.2796L41.2082 79.2439C41.0181 78.2458 40.9231 77.2239 40.9231 76.1782C40.9231 74.2771 41.5291 72.2333 42.7411 70.0469Z" fill="#C9C279"/>
<path d="M48.0525 83.8424C51.2132 83.8424 54.1244 82.9988 56.7861 81.3114C59.3765 79.6717 61.3608 77.4853 62.7392 74.7523C62.5728 77.414 60.945 80.0757 57.8555 82.7373C54.7899 85.399 51.8074 86.7298 48.9081 86.7298C47.5535 86.7298 46.3296 86.3971 45.2364 85.7317C44.1194 85.0663 43.2045 84.1157 42.4915 82.8799C44.2501 83.5216 46.1038 83.8424 48.0525 83.8424Z" fill="#C9C279"/>
<path d="M42.9193 76C44.9631 76 46.5553 76.6535 47.6961 77.9606C48.6942 79.1013 49.1695 80.4678 49.122 82.06C49.0744 83.4622 48.4447 84.7455 47.2326 85.91C45.9493 87.122 44.4522 87.728 42.7411 87.728C41.3152 87.728 40.0675 87.217 38.9981 86.1951C37.7861 85.0306 37.1801 83.5216 37.1801 81.6679C37.1801 80.242 37.6792 78.9706 38.6773 77.8537C39.7942 76.6179 41.2083 76 42.9193 76Z" fill="#0D131A"/>
<path d="M43.0619 76.9268C44.5116 76.9268 45.7236 77.414 46.6979 78.3884C47.601 79.3152 48.0525 80.3846 48.0525 81.5966C48.0525 82.9275 47.5416 84.1395 46.5197 85.2327C45.474 86.3734 44.262 86.9437 42.8837 86.9437C41.7192 86.9437 40.6498 86.4565 39.6754 85.4822C38.6773 84.5316 38.1782 83.4741 38.1782 82.3096C38.1782 80.646 38.6416 79.3271 39.5685 78.3527C40.4478 77.4021 41.6122 76.9268 43.0619 76.9268Z" fill="#F0E78E"/>
<path d="M38.2852 81.1689C38.7842 82.4284 39.5803 83.4384 40.6735 84.1989C41.8142 84.9831 43.0738 85.3752 44.4521 85.3752C45.2839 85.3752 46.0563 85.2326 46.7692 84.9475C45.676 86.2783 44.3808 86.9437 42.8837 86.9437C41.7192 86.9437 40.6498 86.4565 39.6754 85.4822C38.6773 84.5316 38.1782 83.4741 38.1782 82.3096C38.1782 81.9056 38.2139 81.5253 38.2852 81.1689Z" fill="#C9C279"/>
<path d="M66.3039 70.4034C63.1194 72.5185 59.424 73.576 55.2176 73.576C51.2014 73.576 48.0406 72.4472 45.7354 70.1895C43.3352 67.8605 42.1351 64.5691 42.1351 60.3152C42.1351 57.3921 43.4303 54.8374 46.0206 52.651C48.7773 50.2983 52.247 49.122 56.4296 49.122C61.4678 49.122 65.2226 50.4409 67.6942 53.0788C69.9281 55.4553 71.045 58.818 71.045 63.167C71.045 65.8762 69.4646 68.2883 66.3039 70.4034Z" fill="#0D131A"/>
<path d="M65.1276 69.6548C62.2045 71.5797 58.9606 72.5422 55.3959 72.5422C51.4034 72.5422 48.3496 71.449 46.2345 69.2627C44.1907 67.1476 43.1689 64.1889 43.1689 60.3865C43.1689 57.9862 44.5116 55.7048 47.197 53.5422C49.9775 51.3083 52.9956 50.1914 56.2514 50.1914C60.838 50.1914 64.2126 51.1895 66.3752 53.1858C68.5854 55.182 69.6904 58.3427 69.6904 62.6679C69.6904 65.3296 68.1695 67.6585 65.1276 69.6548Z" fill="#F0E78E"/>
<path d="M64.8068 65.4841C66.9694 63.6304 68.4428 61.2539 69.227 58.3546C69.536 59.5904 69.6904 61.0281 69.6904 62.6679C69.6904 65.3296 68.1695 67.6585 65.1276 69.6548C62.2045 71.5797 58.9606 72.5422 55.3959 72.5422C51.4034 72.5422 48.3496 71.449 46.2345 69.2627C44.1907 67.1476 43.1689 64.1889 43.1689 60.3865C43.1689 58.9606 43.7392 57.4872 44.8799 55.9662C45.2364 59.4359 46.591 62.359 48.9437 64.7355C51.3202 67.1119 54.1007 68.3002 57.2852 68.3002C60.0657 68.3002 62.5729 67.3615 64.8068 65.4841Z" fill="#C9C279"/>
<path d="M68.4428 56.0019C66.6129 56.7861 64.7236 57.1782 62.7749 57.1782C60.4221 57.1782 58.212 56.6317 56.1445 55.5385C54.1482 54.4928 52.4728 53.055 51.1182 51.2252C52.853 50.536 54.5641 50.1914 56.2514 50.1914C62.5491 50.1914 66.6129 52.1282 68.4428 56.0019Z" fill="#C9C279"/>
<path d="M47.5891 57.4991C49.2764 57.4991 50.7617 58.1051 52.045 59.3171C53.3996 60.6241 54.0769 62.252 54.0769 64.2008C54.0769 66.197 53.3164 67.8011 51.7955 69.0131C50.3696 70.1538 48.611 70.7242 46.5197 70.7242C44.8324 70.7242 43.3946 70.1063 42.2064 68.8705C40.9706 67.5872 40.3527 65.9831 40.3527 64.0582C40.3527 62.0857 41.0419 60.4934 42.4203 59.2814C43.7749 58.0932 45.4978 57.4991 47.5891 57.4991Z" fill="#0D131A"/>
<path d="M47.3039 58.4259C49.0388 58.4259 50.4528 59.0319 51.546 60.2439C52.5441 61.3609 53.0431 62.6798 53.0431 64.2008C53.0431 65.793 52.4253 67.1357 51.1895 68.2289C49.9775 69.2983 48.5159 69.833 46.8049 69.833C45.2364 69.833 43.9174 69.2864 42.848 68.1933C41.8024 67.1001 41.2795 65.7692 41.2795 64.2008C41.2795 62.561 41.838 61.1945 42.955 60.1013C44.0957 58.9844 45.5453 58.4259 47.3039 58.4259Z" fill="#F0E78E"/>
<path d="M47.7317 67.409C49.7992 67.409 51.5341 66.6842 52.9362 65.2345C52.6748 66.5654 51.9618 67.6704 50.7974 68.5497C49.6329 69.4053 48.3021 69.833 46.8049 69.833C45.2364 69.833 43.9174 69.2864 42.848 68.1933C41.8024 67.1001 41.2795 65.7692 41.2795 64.2008L41.3152 63.5948C41.9568 64.7592 42.8361 65.6861 43.9531 66.3752C45.0938 67.0644 46.3533 67.409 47.7317 67.409Z" fill="#C9C279"/>
<path d="M63.06 62.8462C63.5828 61.7054 64.2483 60.7667 65.0563 60.03C65.9593 59.1983 66.8624 58.7824 67.7655 58.7824C68.9062 58.7824 69.8568 59.2458 70.6172 60.1726C71.4253 61.1232 71.8293 62.359 71.8293 63.8799C71.8293 65.6623 71.152 67.2189 69.7974 68.5497C68.4665 69.8568 66.9218 70.5103 65.1632 70.5103C63.5472 70.5103 62.5728 69.6548 62.2401 67.9437C61.9312 66.399 62.2045 64.6998 63.06 62.8462Z" fill="#0D131A"/>
<path d="M67.6229 59.531C68.5259 59.531 69.2745 59.9468 69.8687 60.7786C70.4628 61.6104 70.7598 62.5966 70.7598 63.7373C70.7598 65.3296 70.2133 66.6723 69.1201 67.7655C68.0031 68.8824 66.6604 69.4409 65.0919 69.4409C64.5216 69.4409 64.0344 69.227 63.6304 68.7993C63.1789 68.324 62.9531 67.6823 62.9531 66.8743C62.9531 65.4009 63.4759 63.8205 64.5216 62.1332C65.591 60.3984 66.6248 59.531 67.6229 59.531Z" fill="#F0E78E"/>
<path d="M62.9531 66.9456C63.9275 67.8724 65.1157 68.3358 66.5178 68.3358C67.5397 68.3358 68.4665 68.0744 69.2983 67.5516C68.1814 68.8111 66.7792 69.4409 65.0919 69.4409C64.5216 69.4409 64.0463 69.2389 63.666 68.8349C63.2145 68.3596 62.9769 67.7298 62.9531 66.9456Z" fill="#C9C279"/>
<path d="M69.833 55.2889C65.2939 55.2889 61.1588 54.0888 57.4278 51.6886C53.863 49.4071 52.0807 47.0307 52.0807 44.5591C52.0807 43.3709 52.152 42.6342 52.2945 42.349C51.7242 43.1095 50.7261 43.8699 49.3002 44.6304C46.4959 46.1276 43.0263 46.8762 38.8912 46.8762C35.0413 46.8762 31.8687 45.0819 29.3733 41.4934C26.783 37.8099 25.4878 33.0213 25.4878 27.1276C25.4878 18.8099 28.7673 12.0963 35.3264 6.98687C41.1964 2.42402 48.0525 0.142593 55.8949 0.142593C63.0719 0.142593 69.9756 2.62602 76.606 7.59288C83.7355 12.94 87.3002 19.0475 87.3002 25.9156C87.3002 30.0982 85.6604 33.5797 82.3809 36.3602L83.1651 37.9644C83.6879 39.3665 83.9493 40.8756 83.9493 42.4916C83.9493 45.6998 82.8561 48.516 80.6698 50.94C78.0556 53.8393 74.4434 55.2889 69.833 55.2889Z" fill="#0D131A"/>
<path d="M69.5835 32.5103C78.2814 32.5103 82.6304 35.8612 82.6304 42.5629C82.6304 45.7236 81.3946 48.4565 78.9231 50.7617C76.4278 53.0907 73.469 54.2552 70.0469 54.2552C65.5078 54.2552 61.3965 52.9481 57.713 50.334C54.576 48.1001 53.0075 46.1513 53.0075 44.4878L53.0788 42.5629L53.1501 41.9212L56.9644 38.4991C58.8655 36.6454 60.9093 35.1839 63.0957 34.1145C65.3534 33.045 67.516 32.5103 69.5835 32.5103Z" fill="#6CBA5A"/>
<path d="M67.0525 49.1933L67.9081 49.1576V54.1482C63.868 53.7442 60.2677 52.3183 57.1069 49.8706C54.374 47.7555 53.0075 45.9612 53.0075 44.4878L53.0788 42.5629L53.1501 41.9212L54.8612 40.4597C55.7405 43.0263 57.2733 45.1176 59.4597 46.7336C61.7173 48.3734 64.2483 49.1933 67.0525 49.1933Z" fill="#5DA24D"/>
<path d="M76.1782 8.87618C82.6423 14.0094 85.8743 19.6892 85.8743 25.9156C85.8743 28.601 85.1732 30.9775 83.7711 33.045L81.6679 35.3265C80.5747 34.0194 78.8874 33.0331 76.606 32.3677C74.5622 31.7736 72.1976 31.4766 69.5122 31.4766C66.2564 31.4766 63.1076 32.4747 60.0657 34.4709C59.2814 34.9938 56.8574 36.99 52.7936 40.4597C50.5597 42.3846 48.4328 43.7155 46.4128 44.4522C44.3214 45.2126 41.6835 45.5929 38.4991 45.5929C35.1957 45.5929 32.439 43.7986 30.2289 40.2101C28.0663 36.6454 26.985 32.2608 26.985 27.0563C26.985 19.404 29.9437 13.1182 35.8612 8.19888C41.3746 3.61226 47.9694 1.31895 55.6454 1.31895C62.965 1.31895 69.8092 3.83803 76.1782 8.87618Z" fill="#6CBA5A"/>
<path d="M36.681 41.03C41.9093 43.2639 47.3633 43.0144 53.0431 40.2814L52.7936 40.4597C50.5597 42.3846 48.4328 43.7155 46.4127 44.4522C44.3214 45.2126 41.6835 45.5929 38.4991 45.5929C35.4096 45.5929 32.7955 44.0125 30.6566 40.8518C28.5416 37.7624 27.3415 33.853 27.0563 29.1238C28.2683 34.8036 31.4765 38.7724 36.681 41.03Z" fill="#5DA24D"/>
<path d="M42.3133 8.5197C45.6404 8.5197 48.4684 9.77924 50.7974 12.2983C52.8887 14.556 53.9343 17.0156 53.9343 19.6773C53.9343 22.7667 52.9243 25.3571 50.9043 27.4484C48.6704 29.7774 45.6166 30.9418 41.7429 30.9418C38.8912 30.9418 36.4077 29.8724 34.2927 27.7336C32.1538 25.5472 31.0844 22.945 31.0844 19.9268C31.0844 16.8374 32.1895 14.1757 34.3996 11.9418C36.6097 9.66041 39.2476 8.5197 42.3133 8.5197Z" fill="#0D131A"/>
<path d="M42.5629 9.80301C45.5335 9.80301 48.0169 10.9437 50.0131 13.2251C51.7717 15.2452 52.651 17.4196 52.651 19.7486C52.651 22.5291 51.641 24.9056 49.621 26.8781C47.4822 28.9931 44.7849 29.9675 41.5291 29.8011C38.9625 29.6823 36.7999 28.6604 35.0413 26.7355C33.2589 24.7867 32.3677 22.4103 32.3677 19.606C32.3677 16.8493 33.3302 14.5322 35.2552 12.6548C37.2039 10.7536 39.6398 9.80301 42.5629 9.80301Z" fill="#F9BE00"/>
<path d="M41.9925 27.2702C39.925 27.2702 38.1545 26.5335 36.681 25.06C35.2076 23.5866 34.4709 21.8161 34.4709 19.7486C34.4709 17.6573 35.2076 15.8749 36.681 14.4015C38.1545 12.9281 39.925 12.1914 41.9925 12.1914C44.0838 12.1914 45.8662 12.9281 47.3396 14.4015C48.813 15.8749 49.5497 17.6573 49.5497 19.7486C49.5497 21.8161 48.813 23.5866 47.3396 25.06C45.8662 26.5335 44.0838 27.2702 41.9925 27.2702Z" fill="#0D131A"/>
<path d="M89.439 8.91183C91.1739 8.55536 92.5166 9.04254 93.4672 10.3734C94.4891 11.7517 94.6554 13.142 93.9662 14.5441C93.182 16.1363 91.3402 17.5504 88.4409 18.7861C84.1632 20.6636 81.359 21.9825 80.0281 22.743C79.0538 23.2896 78.4121 23.753 78.1032 24.1332C77.7705 24.5135 77.414 25.2145 77.0338 26.2364C75.9881 29.0169 74.4553 30.2527 72.4353 29.9437C71.1282 29.7536 70.1895 29.2189 69.6191 28.3396C69.2627 27.8168 68.9775 26.9256 68.7636 25.6661L68.3358 23.242C68.1457 22.6717 67.6823 22.1013 66.9456 21.531C66.2802 21.0081 64.2364 19.8555 60.8143 18.0732C57.2971 16.2195 55.182 15.0313 54.469 14.5085C52.7342 13.2252 51.7836 11.7042 51.6173 9.9456C51.4984 8.51971 51.8311 7.35523 52.6154 6.45217C53.4234 5.50158 54.5047 4.99063 55.8593 4.91934C57.2139 4.87181 58.5091 5.28769 59.7448 6.16699L63.6304 9.41089L68.5497 13.546C71.1876 15.566 73.065 16.5879 74.182 16.6116C75.7029 16.6592 78.7448 15.1145 83.3077 11.9775C85.8505 10.2427 87.8943 9.22077 89.439 8.91183Z" fill="#0D131A"/>
<path d="M87.6567 10.6942C88.7736 10.1001 89.7717 9.83866 90.651 9.90995C91.459 10.005 92.0888 10.3496 92.5403 10.9437C93.2295 11.8706 93.3246 12.8568 92.8255 13.9024C92.3027 15.0194 91.1857 15.9938 89.4747 16.8255C85.6961 18.6554 82.5591 20.212 80.0638 21.4953C78.8993 22.0894 78.1032 22.6004 77.6754 23.0281C77.0575 23.5985 76.5704 24.4184 76.2139 25.4878C75.7386 26.7949 75.2039 27.7098 74.6098 28.2327C73.9919 28.7555 73.2433 28.9337 72.364 28.7674C71.4847 28.601 70.8787 28.2683 70.546 27.7692C70.237 27.2939 70.0231 26.4265 69.9043 25.167C69.7855 24.0976 69.5478 23.2302 69.1914 22.5647C68.7398 21.7567 67.9794 20.9725 66.9099 20.212L63.2026 18.1088L57.2495 14.8649C55.0869 13.6292 53.7086 12.3221 53.1144 10.9437C52.5916 9.68418 52.7223 8.50782 53.5066 7.41464C54.267 6.34522 55.3365 5.94122 56.7148 6.20263C58.2595 6.48781 60.0657 7.59288 62.1332 9.51783C64.1295 11.3953 66.2089 13.1063 68.3715 14.651C71.0807 16.576 73.0413 17.5385 74.2533 17.5385C75.6554 17.5385 77.7824 16.6948 80.6341 15.0075L87.6567 10.6942Z" fill="#DA4E70"/>
<path d="M93.1107 12.3696C93.2058 13.1539 92.9562 13.9262 92.3621 14.6867C91.7205 15.4947 90.758 16.2076 89.4747 16.8255C85.6961 18.6554 82.5591 20.212 80.0638 21.4953C78.8993 22.0894 78.1032 22.6004 77.6754 23.0281C77.0575 23.5985 76.5704 24.4184 76.2139 25.4878C75.7386 26.7949 75.2039 27.7098 74.6098 28.2327C73.9919 28.7555 73.2433 28.9337 72.364 28.7674C71.4847 28.601 70.8787 28.2683 70.546 27.7692C70.237 27.2939 70.0231 26.4265 69.9043 25.167C69.7855 24.0976 69.5478 23.2302 69.1914 22.5647C68.7398 21.7567 67.9794 20.9725 66.9099 20.212L63.2026 18.1088L57.2495 14.8649C55.586 13.9381 54.3859 12.94 53.6492 11.8706C52.9837 10.92 52.7223 9.96936 52.8649 9.01877C52.7936 10.0882 55.5266 12.132 61.0638 15.1501C66.6723 18.192 70.9143 19.8555 73.7899 20.1407C76.0238 20.3784 79.7667 19.4159 85.0188 17.2533C90.2233 15.1145 92.9206 13.4866 93.1107 12.3696Z" fill="#B8405F"/>
<path d="M70.8668 39.8893C73.8612 39.8893 76.3089 40.6973 78.2101 42.3133C79.9925 43.8105 80.8837 45.6523 80.8837 47.8387C80.8837 49.217 80.1351 50.6191 78.6379 52.045C76.7605 53.8512 74.3008 54.8136 71.2589 54.9325C68.4784 55.0275 66.09 54.5285 64.0938 53.4353C61.7886 52.1757 60.636 50.3815 60.636 48.0525C60.636 45.8186 61.646 43.9056 63.666 42.3133C65.686 40.6973 68.0863 39.8893 70.8668 39.8893Z" fill="#0D131A"/>
<path d="M70.7598 40.9231C73.065 40.8755 75.0732 41.4459 76.7842 42.6341C78.6616 43.9174 79.6004 45.5929 79.6004 47.6604C79.6004 49.6567 78.7923 51.2014 77.1763 52.2946C75.6079 53.3402 73.4453 53.863 70.6885 53.863C67.908 53.863 65.7217 53.2689 64.1294 52.0807C62.7035 51.0113 61.9906 49.6804 61.9906 48.0882C61.9906 46.3058 62.7392 44.7255 64.2364 43.3471C65.8999 41.8024 68.0744 40.9944 70.7598 40.9231Z" fill="#6CBA5A"/>
<path d="M41.8855 19.3921C40.7211 19.7486 39.6398 19.7367 38.6416 19.3565C37.6198 19 36.9781 18.3821 36.7167 17.5028C36.4315 16.6235 36.5979 15.7323 37.2158 14.8293C37.8336 13.95 38.7129 13.3321 39.8537 12.9756C41.0181 12.6191 42.0994 12.6191 43.0976 12.9756C44.1194 13.3559 44.773 13.9856 45.0582 14.8649C45.3196 15.768 45.1532 16.6473 44.5591 17.5028C43.9412 18.3821 43.05 19.0119 41.8855 19.3921Z" fill="#8A969D"/>
<path d="M62.2401 49.621C64.2126 51.1182 66.8981 51.9975 70.2964 52.2589C73.6473 52.5203 76.404 52.0807 78.5666 50.94C77.1169 52.8887 74.4909 53.863 70.6885 53.863C68.3834 53.863 66.4822 53.4472 64.985 52.6154C63.6066 51.8549 62.6917 50.8568 62.2401 49.621Z" fill="#5DA24D"/>
<path d="M62.2401 49.621C64.2126 51.1182 66.8981 51.9975 70.2964 52.2589C73.6473 52.5203 76.404 52.0807 78.5666 50.94C77.1169 52.8887 74.4909 53.863 70.6885 53.863C68.3834 53.863 66.4822 53.4472 64.985 52.6154C63.6066 51.8549 62.6917 50.8568 62.2401 49.621Z" fill="#5DA24D"/>
<path d="M28.9456 44.4878C30.3002 45.2483 31.3458 46.4009 32.0825 47.9456C32.8668 49.5854 33.1757 51.1657 33.0094 52.6867C32.843 54.1839 32.2251 55.2295 31.1557 55.8236C30.1101 56.4178 28.8624 56.3584 27.4127 55.6454C25.9631 54.9087 24.7986 53.7561 23.9193 52.1876C23.04 50.6191 22.6954 49.0625 22.8855 47.5178C23.0519 45.9731 23.6698 44.9037 24.7392 44.3096C26.0463 43.5729 27.4484 43.6323 28.9456 44.4878Z" fill="#D6E6AE"/>
<path d="M28.6247 46.1632C29.6704 46.7336 30.4546 47.601 30.9775 48.7655C31.5954 50.0013 31.833 51.1895 31.6904 52.3302C31.5716 53.4472 31.1082 54.2314 30.3002 54.6829L27.484 54.5403C26.3909 53.9938 25.5116 53.1263 24.8461 51.9381C24.2045 50.7736 23.955 49.5972 24.0975 48.409C24.2164 47.2683 24.6798 46.4722 25.4878 46.0206C26.4621 45.474 27.5078 45.5216 28.6247 46.1632Z" fill="#6CBA5A"/>
<path d="M38.3921 69.0844C38.3208 69.8924 38.0594 70.5697 37.6079 71.1163C37.1801 71.6629 36.6692 71.9362 36.075 71.9362C35.4572 71.9362 34.9343 71.6392 34.5066 71.045C34.055 70.4271 33.8411 69.7142 33.8649 68.9062C33.8887 68.0982 34.1263 67.409 34.5779 66.8387C35.0294 66.2683 35.5522 65.995 36.1463 66.0188C36.883 66.0188 37.4653 66.3515 37.8931 67.0169C38.2733 67.6348 38.4396 68.324 38.3921 69.0844Z" fill="#D6E6AE"/>
<path d="M37.7148 69.0844C37.6673 69.7023 37.4772 70.2133 37.1445 70.6173C36.8118 71.0213 36.4196 71.2233 35.9681 71.2233C35.5166 71.2233 35.1245 70.9975 34.7918 70.546C34.459 70.0707 34.3046 69.536 34.3283 68.9418C34.3283 68.324 34.5066 67.8011 34.863 67.3734C35.1958 66.9694 35.5879 66.7674 36.0394 66.7674C36.586 66.7911 37.0138 67.0525 37.3227 67.5516C37.6316 68.0031 37.7624 68.5141 37.7148 69.0844Z" fill="#6CBA5A"/>
<path d="M30.6567 82.0957C29.9199 82.6185 29.1714 82.8918 28.4109 82.9156C27.6266 82.9393 27.0325 82.7017 26.6285 82.2026C26.2007 81.7036 26.0819 81.0619 26.272 80.2777C26.4622 79.4697 26.9018 78.7805 27.591 78.2101C28.2802 77.6398 29.0288 77.3427 29.8368 77.3189C30.5972 77.2952 31.1914 77.5328 31.6191 78.0319C32.142 78.6498 32.2845 79.3746 32.0469 80.2064C31.8093 80.9669 31.3458 81.5966 30.6567 82.0957Z" fill="#D6E6AE"/>
<path d="M30.2289 81.5966C29.6585 82.0006 29.0882 82.2145 28.5178 82.2383C27.8999 82.2383 27.4365 82.0482 27.1276 81.6679C26.7949 81.2877 26.7117 80.8005 26.878 80.2064C27.0206 79.5885 27.3533 79.0538 27.8762 78.6023C28.399 78.1745 28.9693 77.9487 29.5872 77.925C30.1814 77.9012 30.6448 78.0913 30.9775 78.4953C31.3577 78.9706 31.4528 79.5291 31.2627 80.1707C31.0963 80.7411 30.7517 81.2164 30.2289 81.5966Z" fill="#6CBA5A"/>
<path d="M19.4278 83.985C18.8099 84.0563 18.2633 83.9612 17.788 83.6998C17.3127 83.4384 17.0275 83.0819 16.9325 82.6304C16.8374 82.1789 16.9919 81.7392 17.3959 81.3114C17.7999 80.9074 18.2989 80.646 18.8931 80.5272C19.511 80.4321 20.0694 80.5153 20.5685 80.7767C21.0675 81.0144 21.3527 81.3709 21.424 81.8462C21.5191 82.3927 21.3527 82.8799 20.925 83.3077C20.521 83.6879 20.0219 83.9137 19.4278 83.985Z" fill="#D6E6AE"/>
<path d="M19.2852 83.4859L18.0375 83.272C17.6573 83.0819 17.4434 82.8205 17.3959 82.4878C17.3483 82.1313 17.4672 81.7986 17.7523 81.4897C18.0375 81.1807 18.4178 80.9906 18.8931 80.9193C19.3446 80.8243 19.7605 80.8837 20.1407 81.0976C20.4972 81.2877 20.7111 81.5491 20.7824 81.8818C20.8537 82.2858 20.7229 82.6423 20.3902 82.9512C20.1051 83.2602 19.7367 83.4384 19.2852 83.4859Z" fill="#6CBA5A"/>
<path d="M11.3002 81.8462C10.8486 81.5372 10.5516 81.1689 10.409 80.7411C10.2426 80.3133 10.2545 79.9331 10.4446 79.6004C10.6348 79.2677 10.9675 79.0775 11.4428 79.03C11.9181 78.9825 12.3815 79.0894 12.833 79.3508C13.2845 79.6123 13.6054 79.9687 13.7955 80.4203C13.9618 80.848 13.95 81.2283 13.7598 81.561C13.4984 81.965 13.1182 82.1789 12.6191 82.2026C12.1676 82.2264 11.7279 82.1076 11.3002 81.8462Z" fill="#D6E6AE"/>
<path d="M11.5141 81.3827C11.1813 81.1689 10.9556 80.9074 10.8368 80.5985C10.7179 80.3133 10.7298 80.0519 10.8724 79.8143L11.5853 79.3865C11.9181 79.339 12.2508 79.4103 12.5835 79.6004C12.9162 79.7905 13.1419 80.04 13.2608 80.349C13.3796 80.6579 13.3677 80.9431 13.2251 81.2045C13.0588 81.4897 12.7974 81.6442 12.4409 81.6679C12.1082 81.6917 11.7992 81.5966 11.5141 81.3827Z" fill="#6CBA5A"/>
<path d="M91.8274 11.621C91.8036 11.9062 91.6492 12.1438 91.364 12.334C91.0788 12.5241 90.7461 12.5954 90.3659 12.5478C89.9856 12.5241 89.6767 12.3934 89.439 12.1557C89.2014 11.9181 89.0944 11.6448 89.1182 11.3358C89.142 11.0507 89.2964 10.813 89.5816 10.6229C89.8668 10.4565 90.1995 10.3852 90.5797 10.409C90.96 10.4565 91.2689 10.5872 91.5066 10.8011C91.768 11.0388 91.8749 11.3121 91.8274 11.621Z" fill="#EDADB5"/>
<path d="M64.272 13.7599C64.2007 13.8549 63.2383 13.344 61.3846 12.227C59.626 11.1576 58.3308 10.3139 57.499 9.69606C56.3821 8.86429 55.9424 8.28205 56.1801 7.94935C56.489 7.6404 57.2139 7.90182 58.3546 8.73359C59.4478 9.56536 60.636 10.5159 61.9193 11.5854C63.5591 12.9162 64.3433 13.641 64.272 13.7599Z" fill="#EDADB5"/>
</svg>
